<svg width="80" height="80" viewBox="0 0 80 80" fill="none" xmlns="http://www.w3.org/2000/svg">
<path d="M66.6667 23.3333H36.6667L34.2667 18.5C33.9871 17.9452 33.5581 17.4796 33.028 17.1557C32.4979 16.8317 31.8879 16.6624 31.2667 16.6667H13.3333C12.4493 16.6667 11.6014 17.0179 10.9763 17.643C10.3512 18.2681 10 19.116 10 20V60C10 60.8841 10.3512 61.7319 10.9763 62.357C11.6014 62.9822 12.4493 63.3333 13.3333 63.3333H66.6667C67.5507 63.3333 68.3986 62.9822 69.0237 62.357C69.6488 61.7319 70 60.8841 70 60V26.6667C70 25.7826 69.6488 24.9348 69.0237 24.3097C68.3986 23.6845 67.5507 23.3333 66.6667 23.3333ZM40 50C38.6815 50 37.3925 49.609 36.2962 48.8765C35.1999 48.1439 34.3454 47.1027 33.8408 45.8846C33.3362 44.6664 33.2042 43.3259 33.4614 42.0327C33.7187 40.7395 34.3536 39.5516 35.286 38.6193C36.2183 37.6869 37.4062 37.052 38.6994 36.7948C39.9926 36.5375 41.333 36.6696 42.5512 37.1741C43.7694 37.6787 44.8106 38.5332 45.5431 39.6295C46.2757 40.7259 46.6667 42.0148 46.6667 43.3333C46.6667 45.1015 45.9643 46.7971 44.714 48.0474C43.4638 49.2976 41.7681 50 40 50Z" fill="#92BA92"/>
<path d="M60 23.3333H46.6667L48.3333 16.6667H58.3333L60 23.3333ZM40 36.6667C38.6815 36.6667 37.3925 37.0577 36.2962 37.7902C35.1999 38.5228 34.3454 39.5639 33.8408 40.7821C33.3362 42.0003 33.2042 43.3407 33.4614 44.6339C33.7187 45.9271 34.3536 47.115 35.286 48.0474C36.2183 48.9797 37.4062 49.6147 38.6994 49.8719C39.9926 50.1291 41.333 49.9971 42.5512 49.4925C43.7694 48.988 44.8106 48.1335 45.5431 47.0371C46.2757 45.9408 46.6667 44.6519 46.6667 43.3333C46.6667 41.5652 45.9643 39.8695 44.714 38.6193C43.4638 37.3691 41.7681 36.6667 40 36.6667ZM36.6667 23.3333L34.2667 18.5C33.9871 17.9452 33.5581 17.4796 33.028 17.1557C32.4979 16.8317 31.8879 16.6624 31.2667 16.6667H13.3333C12.4493 16.6667 11.6014 17.0179 10.9763 17.643C10.3512 18.2681 10 19.116 10 20V60C10 60.8841 10.3512 61.7319 10.9763 62.357C11.6014 62.9822 12.4493 63.3333 13.3333 63.3333H66.6667C67.5507 63.3333 68.3986 62.9822 69.0237 62.357C69.6488 61.7319 70 60.8841 70 60V26.6667C70 25.7826 69.6488 24.9348 69.0237 24.3097C68.3986 23.6845 67.5507 23.3333 66.6667 23.3333H36.6667Z" stroke="#EEEEEE" stroke-width="6.66667" stroke-linecap="round" stroke-linejoin="round"/>
</svg>
