<svg width="80" height="80" viewBox="0 0 80 80" fill="none" xmlns="http://www.w3.org/2000/svg">
<path d="M70 50V63.1C70.0102 64.0631 69.8116 65.017 69.4178 65.896C69.0241 66.775 68.4445 67.5582 67.7191 68.1918C66.9936 68.8253 66.1395 69.2942 65.2155 69.5661C64.2916 69.838 63.3196 69.9064 62.3667 69.7667C49.1565 68.0697 36.8865 62.0257 27.4899 52.5868C18.0933 43.148 12.1043 30.851 10.4667 17.6333C10.3274 16.6832 10.3951 15.7141 10.665 14.7925C10.935 13.8709 11.4008 13.0185 12.0307 12.2937C12.6606 11.5688 13.4397 10.9886 14.3146 10.5927C15.1896 10.1968 16.1397 9.99466 17.1 10H30C30.824 9.99501 31.6207 10.2954 32.2363 10.8433C32.8519 11.3912 33.2427 12.1476 33.3333 12.9667C33.6641 17.3353 34.7939 21.606 36.6667 25.5667C36.9878 26.3168 37.0226 27.1586 36.7646 27.9327C36.5066 28.7067 35.9736 29.3593 35.2667 29.7667L32.4 31.4C31.9868 31.6273 31.6265 31.9396 31.343 32.3164C31.0594 32.6932 30.859 33.1259 30.7551 33.5859C30.6511 34.0458 30.6459 34.5226 30.7398 34.9847C30.8338 35.4469 31.0247 35.8838 31.3 36.2667C34.5978 41.0973 38.7694 45.2689 43.6 48.5667C43.9829 48.842 44.4198 49.0329 44.8819 49.1268C45.3441 49.2208 45.8208 49.2156 46.2808 49.1116C46.7408 49.0077 47.1735 48.8073 47.5503 48.5237C47.9271 48.2402 48.2394 47.8799 48.4667 47.4667L50.1 44.6C50.5317 43.8838 51.2169 43.356 52.0196 43.1214C52.8223 42.8868 53.6838 42.9624 54.4333 43.3333C58.394 45.2061 62.6648 46.3359 67.0333 46.6667C67.8524 46.7573 68.6089 47.1481 69.1567 47.7637C69.7046 48.3793 70.005 49.176 70 50Z" fill="#92BA92"/>
<path d="M70 50V63.1C70.0102 64.0631 69.8116 65.017 69.4178 65.896C69.0241 66.775 68.4445 67.5582 67.7191 68.1918C66.9936 68.8253 66.1395 69.2942 65.2155 69.5661C64.2916 69.838 63.3196 69.9064 62.3667 69.7667C49.1565 68.0697 36.8865 62.0257 27.4899 52.5868C18.0933 43.148 12.1043 30.851 10.4667 17.6333C10.3274 16.6832 10.3951 15.7141 10.665 14.7925C10.935 13.8709 11.4008 13.0185 12.0307 12.2937C12.6606 11.5688 13.4397 10.9886 14.3146 10.5927C15.1896 10.1968 16.1397 9.99466 17.1 10H30C30.824 9.99501 31.6207 10.2954 32.2363 10.8433C32.8519 11.3912 33.2427 12.1476 33.3333 12.9667C33.6641 17.3353 34.7939 21.606 36.6667 25.5667C36.9878 26.3168 37.0226 27.1586 36.7646 27.9327C36.5066 28.7067 35.9736 29.3593 35.2667 29.7667L32.4 31.4C31.9868 31.6273 31.6265 31.9396 31.343 32.3164C31.0594 32.6932 30.859 33.1259 30.7551 33.5859C30.6511 34.0458 30.6459 34.5226 30.7398 34.9847C30.8338 35.4469 31.0247 35.8838 31.3 36.2667C34.5978 41.0973 38.7694 45.2689 43.6 48.5667C43.9829 48.842 44.4198 49.0329 44.8819 49.1268C45.3441 49.2208 45.8208 49.2156 46.2808 49.1116C46.7408 49.0077 47.1735 48.8073 47.5503 48.5237C47.9271 48.2402 48.2394 47.8799 48.4667 47.4667L50.1 44.6C50.5317 43.8838 51.2169 43.356 52.0196 43.1214C52.8223 42.8868 53.6838 42.9624 54.4333 43.3333C58.394 45.2061 62.6648 46.3359 67.0333 46.6667C67.8524 46.7573 68.6089 47.1481 69.1567 47.7637C69.7046 48.3793 70.005 49.176 70 50Z" stroke="#E5E8D2" stroke-width="6.66667" stroke-linecap="round" stroke-linejoin="round"/>
</svg>
