<svg width="80" height="80" viewBox="0 0 80 80" fill="none" xmlns="http://www.w3.org/2000/svg">
<path d="M53.3333 23.3333C53.3333 15.9695 47.3638 10 40 10C32.6362 10 26.6667 15.9695 26.6667 23.3333V43.3333C26.6667 50.6971 32.6362 56.6667 40 56.6667C47.3638 56.6667 53.3333 50.6971 53.3333 43.3333V23.3333Z" fill="#92BA92"/>
<path d="M40 56.6667C36.4638 56.6667 33.0724 55.2619 30.5719 52.7614C28.0714 50.2609 26.6667 46.8696 26.6667 43.3333V23.3333C26.6667 19.7971 28.0714 16.4057 30.5719 13.9052C33.0724 11.4048 36.4638 10 40 10C43.5362 10 46.9276 11.4048 49.4281 13.9052C51.9286 16.4057 53.3333 19.7971 53.3333 23.3333V43.3333C53.3333 46.8696 51.9286 50.2609 49.4281 52.7614C46.9276 55.2619 43.5362 56.6667 40 56.6667ZM40 56.6667V70M50 70H30" stroke="#EEEEEE" stroke-width="6.66667" stroke-linecap="round" stroke-linejoin="round"/>
</svg>
